<svg width="32" height="32" viewBox="0 0 32 32" fill="none" xmlns="http://www.w3.org/2000/svg">
<g clip-path="url(#clip0_3_91)">
<path d="M16 28C21.1547 28 25.3333 23.8213 25.3333 18.6667C25.3333 13.512 21.1547 9.33334 16 9.33334C10.8453 9.33334 6.66666 13.512 6.66666 18.6667C6.66666 23.8213 10.8453 28 16 28Z" stroke="#7F88A9" stroke-width="2" stroke-linecap="round" stroke-linejoin="round"/>
<path d="M16 14.6667V6.66667C16 5.95942 16.281 5.28115 16.781 4.78105C17.2811 4.28095 17.9594 4 18.6667 4H21.3333V5.33333C21.3333 6.04058 21.0524 6.71885 20.5523 7.21895C20.0522 7.71905 19.3739 8 18.6667 8H16" stroke="#7F88A9" stroke-width="2" stroke-linecap="round" stroke-linejoin="round"/>
<path d="M13.3333 14C15.1107 14.8893 16.8893 14.8893 18.6667 14" stroke="#7F88A9" stroke-width="2" stroke-linecap="round" stroke-linejoin="round"/>
</g>
<defs>
<clipPath id="clip0_3_91">
<rect width="32" height="32" fill="white"/>
</clipPath>
</defs>
</svg>
