<svg width="32" height="32" viewBox="0 0 32 32" fill="none" xmlns="http://www.w3.org/2000/svg">
<g clip-path="url(#clip0_3_98)">
<path d="M12 5.33333H6.66665C5.93027 5.33333 5.33331 5.93028 5.33331 6.66666V12C5.33331 12.7364 5.93027 13.3333 6.66665 13.3333H12C12.7364 13.3333 13.3333 12.7364 13.3333 12V6.66666C13.3333 5.93028 12.7364 5.33333 12 5.33333Z" stroke="#7F89A9" stroke-width="2" stroke-linecap="round" stroke-linejoin="round"/>
<path d="M25.3334 5.33333H20C19.2636 5.33333 18.6667 5.93028 18.6667 6.66666V12C18.6667 12.7364 19.2636 13.3333 20 13.3333H25.3334C26.0697 13.3333 26.6667 12.7364 26.6667 12V6.66666C26.6667 5.93028 26.0697 5.33333 25.3334 5.33333Z" stroke="#7F89A9" stroke-width="2" stroke-linecap="round" stroke-linejoin="round"/>
<path d="M12 18.6667H6.66665C5.93027 18.6667 5.33331 19.2636 5.33331 20V25.3333C5.33331 26.0697 5.93027 26.6667 6.66665 26.6667H12C12.7364 26.6667 13.3333 26.0697 13.3333 25.3333V20C13.3333 19.2636 12.7364 18.6667 12 18.6667Z" stroke="#7F89A9" stroke-width="2" stroke-linecap="round" stroke-linejoin="round"/>
<path d="M25.3334 18.6667H20C19.2636 18.6667 18.6667 19.2636 18.6667 20V25.3333C18.6667 26.0697 19.2636 26.6667 20 26.6667H25.3334C26.0697 26.6667 26.6667 26.0697 26.6667 25.3333V20C26.6667 19.2636 26.0697 18.6667 25.3334 18.6667Z" stroke="#7F89A9" stroke-width="2" stroke-linecap="round" stroke-linejoin="round"/>
</g>
<defs>
<clipPath id="clip0_3_98">
<rect width="32" height="32" fill="white"/>
</clipPath>
</defs>
</svg>
